<svg aria-hidden="true" style="position: absolute; width: 0; height: 0; overflow: hidden;" version="1.1" xmlns="http://www.w3.org/2000/svg" xmlns:xlink="http://www.w3.org/1999/xlink">
<defs>
<symbol id="icon-checked" viewBox="0 0 10 10">
<path fill="#8baa36" xmlns="http://www.w3.org/2000/svg" d="M7.77377 1.01229C8.04472 0.612637 8.58836 0.508303 8.98801 0.779256C9.38767 1.05021 9.492 1.59384 9.22105 1.9935L4.47925 8.98765C4.13243 9.4992 3.37879 9.4992 3.03197 8.98765L0.779622 5.66544C0.508669 5.26578 0.613003 4.72215 1.01266 4.45119C1.41231 4.18024 1.95595 4.28457 2.2269 4.68423L3.75561 6.93907L7.77377 1.01229Z" fill="#8BAA36"/>
</symbol>
<symbol id="icon-search" viewBox="0 0 32 32">
<path stroke-linejoin="round" stroke-linecap="round" stroke-miterlimit="4" stroke-width="2.6667" d="M14.667 25.333c5.891 0 10.667-4.776 10.667-10.667s-4.776-10.667-10.667-10.667c-5.891 0-10.667 4.776-10.667 10.667s4.776 10.667 10.667 10.667z"></path>
<path stroke-linejoin="round" stroke-linecap="round" stroke-miterlimit="4" stroke-width="2.6667" d="M28.001 28l-5.8-5.8"></path>
</symbol>
<symbol id="icon-error" viewBox="0 0 32 32">
<path fill="#e74a3b" style="fill: var(--color1, #e74a3b)" d="M0 16c0-8.838 7.162-16 16-16s16 7.162 16 16c0 8.837-7.163 16-16 16s-16-7.163-16-16zM10.938 13.006l2.944 2.938-2.944 2.994c-0.581 0.588-0.581 1.538 0 2.069 0.588 0.637 1.537 0.637 2.069 0l2.938-2.888 2.994 2.888c0.588 0.637 1.538 0.637 2.069 0 0.637-0.531 0.637-1.481 0-2.069l-2.888-2.994 2.888-2.938c0.637-0.531 0.637-1.481 0-2.069-0.531-0.581-1.481-0.581-2.069 0l-2.994 2.944-2.938-2.944c-0.531-0.581-1.481-0.581-2.069 0-0.581 0.588-0.581 1.537 0 2.069z"></path>
</symbol>
<symbol id="icon-facebook" viewBox="0 0 32 32">
<path fill="#8baa36" style="fill: var(--color2, #8baa36)" d="M31.238 16.092c0-8.466-6.823-15.33-15.238-15.33s-15.238 6.864-15.238 15.33c0 7.651 5.571 13.994 12.857 15.145v-10.712h-3.87v-4.433h3.87v-3.377c0-3.841 2.276-5.965 5.756-5.965 1.667 0 3.412 0.3 3.412 0.3v3.773h-1.922c-1.892 0-2.484 1.181-2.484 2.395v2.874h4.226l-0.675 4.433h-3.55v10.713c7.286-1.15 12.857-7.493 12.857-15.146z"></path>
</symbol>
<symbol id="icon-foto" viewBox="0 0 32 32">
<path fill="none" stroke="#c4c4c4" style="stroke: var(--color3, #c4c4c4)" stroke-linejoin="round" stroke-linecap="round" stroke-miterlimit="4" stroke-width="0.7619" d="M28.19 11.429v-4.581c0-0.807-0.32-1.58-0.889-2.152s-1.342-0.893-2.149-0.896l-4.581-0.014M28.19 20.571v4.571c0 0.808-0.321 1.583-0.893 2.155s-1.347 0.893-2.155 0.893h-4.571M11.429 3.787l-4.581 0.015c-0.807 0.002-1.58 0.325-2.149 0.896s-0.889 1.345-0.889 2.152v4.579M11.429 28.19h-4.571c-0.808 0-1.583-0.321-2.155-0.893s-0.893-1.347-0.893-2.155v-4.571"></path>
<path fill="#c4c4c4" style="fill: var(--color3, #c4c4c4)" d="M15.905 18.75c0.625 0 1.156-0.219 1.594-0.656s0.656-0.969 0.656-1.594-0.219-1.156-0.656-1.594c-0.438-0.437-0.969-0.656-1.594-0.656s-1.156 0.219-1.594 0.656c-0.437 0.438-0.656 0.969-0.656 1.594s0.219 1.156 0.656 1.594c0.438 0.437 0.969 0.656 1.594 0.656zM11.905 20.5c-0.275 0-0.51-0.098-0.706-0.294s-0.294-0.431-0.294-0.706v-6c0-0.275 0.098-0.51 0.294-0.706s0.431-0.294 0.706-0.294h1.575l0.925-1h3l0.925 1h1.575c0.275 0 0.511 0.098 0.706 0.294s0.294 0.431 0.294 0.706v6c0 0.275-0.098 0.511-0.294 0.706s-0.431 0.294-0.706 0.294h-8z"></path>
</symbol>
<symbol id="icon-instagram" viewBox="0 0 32 32">
<path fill="#8baa36" style="fill: var(--color2, #8baa36)" d="M22.349 3.301c1.683 0.005 3.295 0.676 4.484 1.865s1.86 2.802 1.865 4.484v12.698c-0.005 1.683-0.676 3.295-1.865 4.484s-2.802 1.86-4.484 1.865h-12.698c-1.682-0.005-3.295-0.676-4.484-1.865s-1.86-2.802-1.865-4.484v-12.698c0.005-1.682 0.676-3.295 1.865-4.484s2.802-1.86 4.484-1.865h12.698zM22.349 0.762h-12.698c-4.889 0-8.889 4-8.889 8.889v12.698c0 4.889 4 8.889 8.889 8.889h12.698c4.889 0 8.889-4 8.889-8.889v-12.698c0-4.889-4-8.889-8.889-8.889z"></path>
<path fill="#8baa36" style="fill: var(--color2, #8baa36)" d="M24.254 9.654c-0.377 0-0.745-0.112-1.058-0.321s-0.557-0.507-0.702-0.855-0.182-0.731-0.108-1.101c0.074-0.369 0.255-0.709 0.521-0.975s0.606-0.448 0.975-0.521c0.369-0.074 0.752-0.036 1.101 0.108s0.645 0.388 0.855 0.702c0.209 0.313 0.321 0.681 0.321 1.058 0.001 0.25-0.048 0.498-0.144 0.73s-0.236 0.442-0.413 0.619c-0.177 0.177-0.387 0.317-0.619 0.413s-0.479 0.144-0.73 0.144zM16 10.923c1.005 0 1.987 0.298 2.822 0.856s1.486 1.351 1.871 2.28c0.384 0.928 0.485 1.95 0.289 2.935s-0.68 1.89-1.39 2.601-1.615 1.194-2.601 1.39c-0.985 0.196-2.007 0.095-2.935-0.289s-1.722-1.036-2.28-1.871c-0.558-0.835-0.856-1.817-0.856-2.822 0.001-1.347 0.537-2.638 1.489-3.59s2.243-1.488 3.59-1.489zM16 8.383c-1.507 0-2.98 0.447-4.233 1.284s-2.229 2.027-2.806 3.419c-0.577 1.392-0.728 2.924-0.434 4.402s1.020 2.835 2.085 3.901c1.066 1.066 2.423 1.791 3.901 2.085s3.010 0.143 4.402-0.434c1.392-0.577 2.582-1.553 3.419-2.806s1.284-2.726 1.284-4.233c0-2.021-0.803-3.959-2.232-5.388s-3.367-2.232-5.387-2.232z"></path>
</symbol>
<symbol id="icon-lock" viewBox="0 0 32 32">
<path fill="none" stroke="#fff" style="stroke: var(--color4, #fff)" stroke-linejoin="round" stroke-linecap="round" stroke-miterlimit="4" stroke-width="3.0476" d="M23.619 14.476v-4.571c0-4.208-3.411-7.619-7.619-7.619s-7.619 3.411-7.619 7.619v4.571M9.6 29.714h12.8c2.56 0 3.84 0 4.818-0.498 0.86-0.438 1.559-1.138 1.998-1.998 0.498-0.978 0.498-2.258 0.498-4.818v-0.61c0-2.56 0-3.84-0.498-4.818-0.438-0.86-1.138-1.559-1.998-1.998-0.978-0.498-2.258-0.498-4.818-0.498h-12.8c-2.56 0-3.84 0-4.818 0.498-0.86 0.438-1.559 1.138-1.998 1.998-0.498 0.978-0.498 2.258-0.498 4.818v0.61c0 2.56 0 3.84 0.498 4.818 0.438 0.86 1.138 1.559 1.998 1.998 0.978 0.498 2.258 0.498 4.818 0.498z"></path>
</symbol>
<symbol id="icon-success" viewBox="0 0 32 32">
<path fill="#3cbc81" style="fill: var(--color5, #3cbc81)" d="M0 16c0-8.838 7.162-16 16-16s16 7.162 16 16c0 8.837-7.163 16-16 16s-16-7.163-16-16zM23.237 13.238c0.681-0.681 0.681-1.794 0-2.475s-1.794-0.681-2.475 0l-6.763 6.762-2.763-2.762c-0.681-0.681-1.794-0.681-2.475 0s-0.681 1.794 0 2.475l4 4c0.681 0.681 1.794 0.681 2.475 0l8-8z"></path>
</symbol>
<symbol id="icon-twitter" viewBox="0 0 32 32">
<path fill="#8baa36" style="fill: var(--color2, #8baa36)" d="M32 6.233c-1.2 0.522-2.47 0.865-3.77 1.020 1.366-0.8 2.393-2.070 2.889-3.573-1.291 0.755-2.702 1.285-4.171 1.567-0.619-0.648-1.363-1.164-2.187-1.516s-1.711-0.532-2.607-0.531c-3.628 0-6.564 2.893-6.564 6.46-0.003 0.496 0.054 0.991 0.169 1.473-2.602-0.122-5.149-0.786-7.479-1.948s-4.392-2.799-6.054-4.805c-0.583 0.983-0.891 2.104-0.893 3.247 0 2.24 1.169 4.22 2.933 5.38-1.046-0.025-2.070-0.302-2.985-0.807v0.080c0 3.133 2.267 5.74 5.267 6.333-0.564 0.15-1.146 0.227-1.729 0.227-0.414 0.001-0.828-0.040-1.234-0.12 0.834 2.567 3.261 4.433 6.137 4.487-2.336 1.801-5.205 2.774-8.155 2.767-0.524-0.001-1.047-0.032-1.567-0.093 3.001 1.916 6.489 2.93 10.049 2.92 12.091 0 18.696-9.847 18.696-18.387 0-0.28-0.007-0.56-0.021-0.833 1.282-0.912 2.391-2.045 3.275-3.347z"></path>
</symbol>
<symbol id="icon-user" viewBox="0 0 32 32">
<path fill="none" stroke="#fff" style="stroke: var(--color4, #fff)" stroke-linejoin="round" stroke-linecap="round" stroke-miterlimit="4" stroke-width="3.0476" d="M28.19 29.714c0-2.127 0-3.19-0.262-4.055-0.591-1.948-2.116-3.473-4.064-4.064-0.865-0.262-1.928-0.262-4.055-0.262h-7.619c-2.127 0-3.19 0-4.055 0.262-1.948 0.591-3.473 2.116-4.063 4.064-0.262 0.865-0.262 1.928-0.262 4.055M22.857 9.143c0 3.787-3.070 6.857-6.857 6.857s-6.857-3.070-6.857-6.857c0-3.787 3.070-6.857 6.857-6.857s6.857 3.070 6.857 6.857z"></path>
</symbol>
<symbol id="icon-warning" viewBox="0 0 32 32">
<path fill="#f6c23e" style="fill: var(--color6, #f6c23e)" d="M16 0c-8.838 0-16 7.162-16 16s7.162 16 16 16c8.837 0 16-7.163 16-16s-7.163-16-16-16zM14.5 9.5c0-0.825 0.675-1.5 1.5-1.5s1.5 0.672 1.5 1.5v8c0 0.828-0.672 1.5-1.5 1.5s-1.5-0.669-1.5-1.5v-8zM16 25c-1.085 0-1.965-0.88-1.965-1.965s0.879-1.965 1.965-1.965c1.086 0 1.965 0.88 1.965 1.965-0.002 1.084-0.877 1.965-1.965 1.965z"></path>
</symbol>
<symbol id="icon-youtube" viewBox="0 0 32 32">
<path fill="#8baa36" style="fill: var(--color2, #8baa36)" d="M31.794 9.299c0-2.812-2.069-5.075-4.626-5.075-3.463-0.162-6.995-0.224-10.604-0.224h-1.125c-3.6 0-7.138 0.063-10.601 0.225-2.55 0-4.619 2.275-4.619 5.087-0.156 2.224-0.223 4.449-0.219 6.674-0.006 2.225 0.065 4.452 0.213 6.681 0 2.812 2.069 5.094 4.619 5.094 3.638 0.169 7.37 0.244 11.164 0.237 3.8 0.012 7.522-0.067 11.164-0.237 2.557 0 4.626-2.281 4.626-5.094 0.15-2.231 0.219-4.456 0.213-6.687 0.014-2.225-0.054-4.452-0.204-6.681zM12.94 22.118v-12.281l9.064 6.137-9.064 6.144z"></path>
</symbol>
</defs>
</svg>
