<svg aria-hidden="true" style="position: absolute; width: 0; height: 0; overflow: hidden;" version="1.1" xmlns="http://www.w3.org/2000/svg" xmlns:xlink="http://www.w3.org/1999/xlink">
<defs>
<symbol id="icon-clock" viewBox="0 0 32 32">

<path d="M6.99935 12.8334C10.221 12.8334 12.8327 10.2217 12.8327 7.00002C12.8327 3.77836 10.221 1.16669 6.99935 1.16669C3.77769 1.16669 1.16602 3.77836 1.16602 7.00002C1.16602 10.2217 3.77769 12.8334 6.99935 12.8334Z" stroke="#23262A" stroke-width="1.3" stroke-linecap="round" stroke-linejoin="round"/>
<path d="M7 3.5V7L9.33333 8.16667" stroke="#23262A" stroke-width="1.3" stroke-linecap="round" stroke-linejoin="round"/>
</symbol>
<symbol id="icon-edit" viewBox="0 0 32 32">
<path stroke-linejoin="round" stroke-linecap="round" stroke-miterlimit="4" stroke-width="2.1895" d="M3.791 24.546c0.077-0.696 0.116-1.045 0.221-1.37 0.093-0.289 0.226-0.564 0.393-0.817 0.188-0.285 0.436-0.533 0.932-1.029l17.33-17.33c1.473-1.473 3.861-1.473 5.333 0v0c1.473 1.473 1.473 3.861 0 5.333l-17.33 17.33c-0.495 0.495-0.743 0.743-1.029 0.932-0.253 0.167-0.528 0.299-0.817 0.393-0.325 0.105-0.674 0.144-1.37 0.221l-4.121 0.458 0.458-4.121z"></path>
</symbol>
<symbol id="icon-fb" viewBox="0 0 32 32">
<path d="M31.238 16.092c0-8.466-6.823-15.33-15.238-15.33s-15.238 6.864-15.238 15.33c0 7.651 5.571 13.994 12.857 15.145v-10.712h-3.87v-4.433h3.87v-3.377c0-3.841 2.276-5.965 5.756-5.965 1.667 0 3.412 0.3 3.412 0.3v3.773h-1.922c-1.892 0-2.484 1.181-2.484 2.395v2.874h4.226l-0.675 4.433h-3.55v10.713c7.286-1.15 12.857-7.493 12.857-15.146z"></path>
</symbol>
<symbol id="icon-insta" viewBox="0 0 32 32">
<path d="M22.349 3.301c1.683 0.005 3.295 0.676 4.484 1.865s1.86 2.802 1.865 4.484v12.698c-0.005 1.683-0.676 3.295-1.865 4.484s-2.802 1.86-4.484 1.865h-12.698c-1.682-0.005-3.295-0.676-4.484-1.865s-1.86-2.802-1.865-4.484v-12.698c0.005-1.682 0.676-3.295 1.865-4.484s2.802-1.86 4.484-1.865h12.698zM22.349 0.762h-12.698c-4.889 0-8.889 4-8.889 8.889v12.698c0 4.889 4 8.889 8.889 8.889h12.698c4.889 0 8.889-4 8.889-8.889v-12.698c0-4.889-4-8.889-8.889-8.889z"></path>
<path d="M24.254 9.654c-0.377 0-0.745-0.112-1.058-0.321s-0.557-0.507-0.702-0.855-0.182-0.731-0.108-1.101c0.074-0.369 0.255-0.709 0.521-0.975s0.606-0.448 0.975-0.521c0.369-0.074 0.752-0.036 1.101 0.108s0.645 0.388 0.855 0.702c0.209 0.313 0.321 0.681 0.321 1.058 0.001 0.25-0.048 0.498-0.144 0.73s-0.236 0.442-0.413 0.619c-0.177 0.177-0.387 0.317-0.619 0.413s-0.479 0.144-0.73 0.144zM16 10.923c1.005 0 1.987 0.298 2.822 0.856s1.486 1.351 1.871 2.28c0.384 0.928 0.485 1.95 0.289 2.935s-0.68 1.89-1.39 2.601-1.615 1.194-2.601 1.39c-0.985 0.196-2.007 0.095-2.935-0.289s-1.722-1.036-2.28-1.871c-0.558-0.835-0.856-1.817-0.856-2.822 0.001-1.347 0.537-2.638 1.489-3.59s2.243-1.488 3.59-1.489zM16 8.383c-1.507 0-2.98 0.447-4.233 1.284s-2.229 2.027-2.806 3.419c-0.577 1.392-0.728 2.924-0.434 4.402s1.020 2.835 2.085 3.901c1.066 1.066 2.423 1.791 3.901 2.085s3.010 0.143 4.402-0.434c1.392-0.577 2.582-1.553 3.419-2.806s1.284-2.726 1.284-4.233c0-2.021-0.803-3.959-2.232-5.388s-3.367-2.232-5.387-2.232z"></path>
</symbol>
<symbol id="icon-logo_desc" viewBox="0 0 32 32">
<path fill="#8baa36" style="fill: var(--color1, #8baa36)" d="M8.727 0h14.545c4.82 0 8.727 3.907 8.727 8.727v14.545c0 4.82-3.907 8.727-8.727 8.727h-14.545c-4.82 0-8.727-3.907-8.727-8.727v-14.545c0-4.82 3.907-8.727 8.727-8.727z"></path>
<path fill="none" stroke="#fafafa" style="stroke: var(--color2, #fafafa)" stroke-linejoin="round" stroke-linecap="round" stroke-miterlimit="4" stroke-width="1.4545" d="M7.273 7.347v3.966c0 1.132 0.494 2.135 1.26 2.784 0.375 0.317 0.622 0.746 0.622 1.221v6.62c0 0.736 0.633 1.333 1.412 1.333s1.412-0.597 1.412-1.333v-6.62c0-0.476 0.248-0.904 0.622-1.221 0.766-0.649 1.26-1.652 1.26-2.784v0"></path>
<path fill="none" stroke="#fafafa" style="stroke: var(--color2, #fafafa)" stroke-linejoin="round" stroke-linecap="round" stroke-miterlimit="4" stroke-width="1.4545" d="M10.567 11.717v-4.444"></path>
<path fill="none" stroke="#fafafa" style="stroke: var(--color2, #fafafa)" stroke-linejoin="round" stroke-linecap="round" stroke-miterlimit="4" stroke-width="1.4545" d="M23.273 8.208c0-0.491-0.422-0.889-0.941-0.889h-0.941c-1.559 0-2.823 1.194-2.823 2.667v5.333c0 1.159 0.788 2.136 1.882 2.503v4.117c0 0.736 0.633 1.333 1.412 1.333s1.412-0.597 1.412-1.333v-13.732z"></path>
</symbol>
<symbol id="icon-logo_mob" viewBox="0 0 32 32">
<path fill="#8baa36" style="fill: var(--color1, #8baa36)" d="M9.6 0h12.8c5.302 0 9.6 4.298 9.6 9.6v12.8c0 5.302-4.298 9.6-9.6 9.6h-12.8c-5.302 0-9.6-4.298-9.6-9.6v-12.8c0-5.302 4.298-9.6 9.6-9.6z"></path>
<path fill="none" stroke="#fafafa" style="stroke: var(--color2, #fafafa)" stroke-linejoin="round" stroke-linecap="round" stroke-miterlimit="4" stroke-width="1.6" d="M7.039 7.117v4.072c0 1.163 0.507 2.192 1.294 2.858 0.385 0.326 0.639 0.766 0.639 1.254v6.797c0 0.756 0.649 1.369 1.449 1.369s1.449-0.613 1.449-1.369v-6.797c0-0.488 0.254-0.928 0.639-1.254 0.787-0.666 1.294-1.696 1.294-2.858v0"></path>
<path fill="none" stroke="#fafafa" style="stroke: var(--color2, #fafafa)" stroke-linejoin="round" stroke-linecap="round" stroke-miterlimit="4" stroke-width="1.6" d="M10.42 11.603v-4.563"></path>
<path fill="none" stroke="#fafafa" style="stroke: var(--color2, #fafafa)" stroke-linejoin="round" stroke-linecap="round" stroke-miterlimit="4" stroke-width="1.6" d="M23.466 8c0-0.504-0.433-0.913-0.966-0.913h-0.966c-1.601 0-2.899 1.226-2.899 2.738v5.476c0 1.19 0.809 2.193 1.933 2.57v4.227c0 0.756 0.649 1.369 1.449 1.369s1.449-0.613 1.449-1.369v-14.098z"></path>
</symbol>
<symbol id="icon-pick" viewBox="0 0 32 32">
<path fill="#8baa36" style="fill: var(--color1, #8baa36)" d="M24.876 3.239c0.867-1.279 2.607-1.613 3.886-0.746s1.613 2.607 0.746 3.886l-15.174 22.381c-1.11 1.637-3.521 1.637-4.631 0l-7.207-10.631c-0.867-1.279-0.533-3.019 0.746-3.886s3.019-0.533 3.886 0.746l4.892 7.215 12.858-18.966z"></path>
</symbol>
<symbol id="icon-plus" viewBox="0 0 32 32">
<path fill="#8baa36" style="fill: var(--color1, #8baa36)" d="M32 16c0 8.837-7.163 16-16 16s-16-7.163-16-16c0-8.837 7.163-16 16-16s16 7.163 16 16z"></path>
<path fill="none" stroke="#fff" style="stroke: var(--color3, #fff)" stroke-linejoin="round" stroke-linecap="round" stroke-miterlimit="4" stroke-width="2.6667" d="M16 9v14"></path>
<path fill="none" stroke="#fff" style="stroke: var(--color3, #fff)" stroke-linejoin="round" stroke-linecap="round" stroke-miterlimit="4" stroke-width="2.6667" d="M9 16h14"></path>
</symbol>
<symbol id="icon-right_arrow" viewBox="0 0 32 32">
<path fill="none" stroke="#3e4462" style="stroke: var(--color4, #3e4462)" stroke-linejoin="round" stroke-linecap="round" stroke-miterlimit="4" stroke-width="3.2" d="M3.2 16h25.6M28.8 16l-9.6-9.6M28.8 16l-9.6 9.6"></path>
</symbol>
<symbol id="icon-search" viewBox="0 0 32 32">
<path stroke-linejoin="round" stroke-linecap="round" stroke-miterlimit="4" stroke-width="2.6667" d="M14.667 25.333c5.891 0 10.667-4.776 10.667-10.667s-4.776-10.667-10.667-10.667c-5.891 0-10.667 4.776-10.667 10.667s4.776 10.667 10.667 10.667z"></path>
<path stroke-linejoin="round" stroke-linecap="round" stroke-miterlimit="4" stroke-width="2.6667" d="M28.001 28l-5.8-5.8"></path>
</symbol>
<symbol id="icon-trash" viewBox="0 0 32 32">
<path stroke-linejoin="round" stroke-linecap="round" stroke-miterlimit="4" stroke-width="2.7429" d="M21.333 8v-1.067c0-1.493 0-2.24-0.291-2.811-0.256-0.502-0.664-0.91-1.165-1.165-0.57-0.291-1.317-0.291-2.811-0.291h-2.133c-1.493 0-2.24 0-2.811 0.291-0.502 0.256-0.91 0.664-1.165 1.165-0.291 0.57-0.291 1.317-0.291 2.811v1.067M13.333 15.333v6.667M18.667 15.333v6.667M4 8h24M25.333 8v14.933c0 2.24 0 3.36-0.436 4.216-0.384 0.753-0.995 1.365-1.748 1.748-0.856 0.436-1.976 0.436-4.216 0.436h-5.867c-2.24 0-3.36 0-4.216-0.436-0.753-0.384-1.365-0.995-1.748-1.748-0.436-0.856-0.436-1.976-0.436-4.216v-14.933"></path>
</symbol>
<symbol id="icon-tweeter" viewBox="0 0 32 32">
<path d="M32 6.233c-1.2 0.522-2.47 0.865-3.77 1.020 1.366-0.8 2.393-2.070 2.889-3.573-1.291 0.755-2.702 1.285-4.171 1.567-0.619-0.648-1.363-1.164-2.187-1.516s-1.711-0.532-2.607-0.531c-3.628 0-6.564 2.893-6.564 6.46-0.003 0.496 0.054 0.991 0.169 1.473-2.602-0.122-5.149-0.786-7.479-1.948s-4.392-2.799-6.054-4.805c-0.583 0.983-0.891 2.104-0.893 3.247 0 2.24 1.169 4.22 2.933 5.38-1.046-0.025-2.070-0.302-2.985-0.807v0.080c0 3.133 2.267 5.74 5.267 6.333-0.564 0.15-1.146 0.227-1.729 0.227-0.414 0.001-0.828-0.040-1.234-0.12 0.834 2.567 3.261 4.433 6.137 4.487-2.336 1.801-5.205 2.774-8.155 2.767-0.524-0.001-1.047-0.032-1.567-0.093 3.001 1.916 6.489 2.93 10.049 2.92 12.091 0 18.696-9.847 18.696-18.387 0-0.28-0.007-0.56-0.021-0.833 1.282-0.912 2.391-2.045 3.275-3.347z"></path>
</symbol>
<symbol id="icon-user" viewBox="0 0 32 32">
<path fill="none" stroke="#c4c4c4" style="stroke: var(--color5, #c4c4c4)" stroke-linejoin="round" stroke-linecap="round" stroke-miterlimit="4" stroke-width="2.7234" d="M26.667 28v-2.667c0-1.414-0.562-2.771-1.562-3.771s-2.357-1.562-3.771-1.562h-10.667c-1.414 0-2.771 0.562-3.771 1.562s-1.562 2.357-1.562 3.771v2.667"></path>
<path fill="none" stroke="#c4c4c4" style="stroke: var(--color5, #c4c4c4)" stroke-linejoin="round" stroke-linecap="round" stroke-miterlimit="4" stroke-width="2.7234" d="M16 14.667c2.946 0 5.333-2.388 5.333-5.333s-2.388-5.333-5.333-5.333c-2.945 0-5.333 2.388-5.333 5.333s2.388 5.333 5.333 5.333z"></path>
</symbol>
<symbol id="icon-youtube" viewBox="0 0 32 32">
<path d="M31.794 9.299c0-2.812-2.069-5.075-4.626-5.075-3.463-0.162-6.995-0.224-10.604-0.224h-1.125c-3.6 0-7.138 0.063-10.601 0.225-2.55 0-4.619 2.275-4.619 5.087-0.156 2.224-0.223 4.449-0.219 6.674-0.006 2.225 0.065 4.452 0.213 6.681 0 2.812 2.069 5.094 4.619 5.094 3.638 0.169 7.37 0.244 11.164 0.237 3.8 0.012 7.522-0.067 11.164-0.237 2.557 0 4.626-2.281 4.626-5.094 0.15-2.231 0.219-4.456 0.213-6.687 0.014-2.225-0.054-4.452-0.204-6.681zM12.94 22.118v-12.281l9.064 6.137-9.064 6.144z"></path>
</symbol>
</defs>
</svg>
